<?xml version="1.0" encoding="utf-8"?>
<!-- Generator: Adobe Illustrator 16.0.0, SVG Export Plug-In . SVG Version: 6.00 Build 0)  -->
<!DOCTYPE svg PUBLIC "-//W3C//DTD SVG 1.1//EN" "http://www.w3.org/Graphics/SVG/1.1/DTD/svg11.dtd">
<svg version="1.1" id="Layer_1" xmlns="http://www.w3.org/2000/svg" xmlns:xlink="http://www.w3.org/1999/xlink" x="0px" y="0px"
	 width="169.354px" height="22.182px" viewBox="0 0 169.354 22.182" enable-background="new 0 0 169.354 22.182"
	 xml:space="preserve">
<g>
	<path fill="#FFFFFF" d="M9.32,14.195h0.052L13.48,1.533h4.056l3.848,12.662h0.052l3.692-12.662h5.304l-6.266,19.604h-5.2
		L15.534,9.775h-0.052l-3.848,11.362H6.46L0.61,1.533h5.304L9.32,14.195z"/>
	<path fill="#FFFFFF" d="M36.801,5.849v3.276h5.746v4.316h-5.746v3.38h6.058v4.316H31.706V1.533h11.154v4.316H36.801z"/>
	<path fill="#FFFFFF" d="M46.005,21.137V1.533h7.28c1.854,0,3.289,0.403,4.303,1.209s1.521,2.102,1.521,3.887
		c0,0.936-0.169,1.742-0.507,2.418c-0.338,0.676-0.889,1.205-1.651,1.586v0.052c1.352,0.174,2.357,0.694,3.016,1.56
		c0.659,0.867,0.988,2.011,0.988,3.432c0,0.988-0.195,1.833-0.585,2.535c-0.39,0.702-0.914,1.27-1.573,1.703
		c-0.659,0.434-1.409,0.746-2.249,0.936c-0.841,0.191-1.738,0.286-2.691,0.286H46.005z M51.101,9.229h0.572
		c0.381,0,0.728-0.021,1.04-0.065c0.312-0.043,0.602-0.134,0.871-0.273c0.269-0.139,0.477-0.333,0.624-0.585
		c0.147-0.251,0.221-0.576,0.221-0.975c0-0.433-0.083-0.78-0.247-1.04c-0.165-0.26-0.39-0.45-0.676-0.572
		c-0.286-0.121-0.589-0.199-0.91-0.234s-0.698-0.052-1.131-0.052h-0.364V9.229z M51.101,17.237h0.65
		c0.606,0,1.122-0.017,1.547-0.052c0.424-0.034,0.832-0.117,1.222-0.247c0.39-0.13,0.702-0.338,0.936-0.624
		c0.234-0.286,0.351-0.671,0.351-1.157c0-0.485-0.1-0.871-0.299-1.157c-0.199-0.286-0.481-0.498-0.845-0.637
		c-0.364-0.139-0.789-0.229-1.274-0.273c-0.485-0.043-1.075-0.065-1.768-0.065h-0.52V17.237z"/>
	<path fill="#FFFFFF" d="M71.407,21.137h-5.096V5.849h-4.212V1.533h13.52v4.316h-4.212V21.137z"/>
	<path fill="#FFFFFF" d="M94.469,1.533v11.024c0,1.595-0.126,2.934-0.377,4.017c-0.251,1.083-0.811,2.05-1.677,2.899
		c-0.763,0.763-1.725,1.317-2.886,1.664c-1.162,0.347-2.366,0.52-3.614,0.52c-1.248,0-2.453-0.173-3.614-0.52
		c-1.162-0.347-2.124-0.901-2.886-1.664c-0.867-0.849-1.426-1.815-1.677-2.899c-0.251-1.083-0.377-2.422-0.377-4.017V1.533h5.096
		v10.322c0,0.798,0.03,1.482,0.091,2.054c0.061,0.572,0.204,1.109,0.429,1.612c0.225,0.503,0.576,0.906,1.053,1.209
		c0.477,0.304,1.105,0.455,1.885,0.455c0.78,0,1.408-0.151,1.885-0.455c0.477-0.303,0.828-0.702,1.053-1.196
		s0.368-1.031,0.429-1.612c0.061-0.581,0.091-1.27,0.091-2.067V1.533H94.469z"/>
	<path fill="#FFFFFF" d="M113.995,21.137h-6.344l-4.81-7.54h-0.052v7.54h-5.096V1.533h7.618c2.045,0,3.692,0.503,4.94,1.508
		c1.248,1.006,1.872,2.514,1.872,4.524c0,1.404-0.377,2.617-1.131,3.64c-0.754,1.023-1.807,1.656-3.159,1.898L113.995,21.137z
		 M102.789,10.321h0.494c0.468,0,0.906-0.03,1.313-0.091c0.407-0.061,0.78-0.177,1.118-0.351s0.606-0.425,0.806-0.754
		c0.199-0.329,0.299-0.745,0.299-1.248s-0.1-0.919-0.299-1.248c-0.2-0.329-0.468-0.581-0.806-0.754
		c-0.338-0.173-0.711-0.29-1.118-0.351s-0.845-0.091-1.313-0.091h-0.494V10.321z"/>
	<path fill="#FFFFFF" d="M126.137,6.577c-0.486-0.398-1.019-0.715-1.599-0.949c-0.581-0.234-1.175-0.351-1.781-0.351
		c-0.537,0-1.036,0.147-1.495,0.442c-0.459,0.295-0.689,0.693-0.689,1.196c0,0.503,0.208,0.884,0.624,1.144
		c0.416,0.26,0.962,0.503,1.638,0.728l1.3,0.39c0.728,0.208,1.378,0.459,1.95,0.754c0.572,0.295,1.079,0.65,1.521,1.066
		s0.78,0.919,1.014,1.508c0.234,0.589,0.351,1.265,0.351,2.028c0,1.075-0.156,2.067-0.468,2.977s-0.832,1.677-1.56,2.301
		s-1.577,1.088-2.548,1.391c-0.971,0.303-1.976,0.455-3.016,0.455c-1.213,0-2.414-0.195-3.601-0.585
		c-1.188-0.39-2.284-0.94-3.289-1.651l2.184-4.108c0.71,0.624,1.438,1.118,2.184,1.482c0.745,0.364,1.525,0.546,2.34,0.546
		c0.676,0,1.257-0.169,1.742-0.507c0.485-0.338,0.728-0.827,0.728-1.469c0-0.329-0.091-0.611-0.273-0.845
		c-0.182-0.234-0.42-0.438-0.715-0.611c-0.295-0.173-0.594-0.312-0.897-0.416c-0.304-0.104-0.655-0.208-1.053-0.312
		c-0.069-0.017-0.122-0.035-0.156-0.052c-0.953-0.277-1.725-0.537-2.314-0.78c-0.589-0.243-1.114-0.559-1.573-0.949
		c-0.459-0.39-0.811-0.893-1.053-1.508c-0.243-0.615-0.364-1.382-0.364-2.301c0-0.988,0.165-1.885,0.494-2.691
		c0.329-0.806,0.797-1.499,1.404-2.08c0.606-0.581,1.326-1.027,2.158-1.339c0.832-0.312,1.733-0.468,2.704-0.468
		c1.005,0,2.062,0.147,3.172,0.442c1.109,0.295,2.097,0.685,2.964,1.17L126.137,6.577z"/>
	<path fill="#FFFFFF" d="M145.312,1.624c1.309,0.494,2.474,1.196,3.497,2.106c1.022,0.91,1.824,1.985,2.405,3.224
		c0.581,1.24,0.871,2.579,0.871,4.017c0,1.56-0.269,3.007-0.806,4.342c-0.538,1.335-1.292,2.483-2.262,3.445
		s-2.124,1.708-3.458,2.236c-1.335,0.529-2.773,0.793-4.316,0.793c-1.543,0-2.981-0.264-4.316-0.793
		c-1.335-0.528-2.488-1.278-3.458-2.249c-0.971-0.97-1.725-2.119-2.262-3.445c-0.538-1.326-0.806-2.769-0.806-4.329
		c0-1.438,0.29-2.777,0.871-4.017c0.581-1.239,1.382-2.314,2.405-3.224c1.022-0.91,2.188-1.612,3.497-2.106
		c1.308-0.494,2.665-0.741,4.069-0.741C142.646,0.883,144.002,1.13,145.312,1.624z M139.124,6.239
		c-0.667,0.277-1.261,0.663-1.781,1.157c-0.52,0.494-0.923,1.053-1.209,1.677c-0.286,0.624-0.429,1.266-0.429,1.924
		c0,0.832,0.143,1.604,0.429,2.314c0.286,0.711,0.685,1.335,1.196,1.872c0.511,0.538,1.105,0.949,1.781,1.235
		c0.676,0.286,1.386,0.429,2.132,0.429c0.745,0,1.456-0.143,2.132-0.429c0.676-0.286,1.27-0.697,1.781-1.235
		c0.511-0.537,0.91-1.161,1.196-1.872c0.286-0.71,0.429-1.482,0.429-2.314c0-0.658-0.143-1.304-0.429-1.937
		c-0.286-0.632-0.685-1.191-1.196-1.677c-0.512-0.485-1.105-0.867-1.781-1.144c-0.676-0.277-1.387-0.416-2.132-0.416
		C140.497,5.823,139.791,5.962,139.124,6.239z"/>
	<path fill="#FFFFFF" d="M165.214,6.577c-0.486-0.398-1.019-0.715-1.599-0.949c-0.581-0.234-1.175-0.351-1.781-0.351
		c-0.537,0-1.036,0.147-1.495,0.442c-0.459,0.295-0.689,0.693-0.689,1.196c0,0.503,0.208,0.884,0.624,1.144
		c0.416,0.26,0.962,0.503,1.638,0.728l1.3,0.39c0.728,0.208,1.378,0.459,1.95,0.754c0.572,0.295,1.079,0.65,1.521,1.066
		s0.78,0.919,1.014,1.508c0.234,0.589,0.351,1.265,0.351,2.028c0,1.075-0.156,2.067-0.468,2.977s-0.832,1.677-1.56,2.301
		s-1.577,1.088-2.548,1.391c-0.971,0.303-1.976,0.455-3.016,0.455c-1.213,0-2.414-0.195-3.601-0.585
		c-1.188-0.39-2.284-0.94-3.289-1.651l2.184-4.108c0.71,0.624,1.438,1.118,2.184,1.482c0.745,0.364,1.525,0.546,2.34,0.546
		c0.676,0,1.257-0.169,1.742-0.507c0.485-0.338,0.728-0.827,0.728-1.469c0-0.329-0.091-0.611-0.273-0.845
		c-0.182-0.234-0.42-0.438-0.715-0.611c-0.295-0.173-0.594-0.312-0.897-0.416c-0.304-0.104-0.655-0.208-1.053-0.312
		c-0.069-0.017-0.122-0.035-0.156-0.052c-0.953-0.277-1.725-0.537-2.314-0.78c-0.589-0.243-1.114-0.559-1.573-0.949
		c-0.459-0.39-0.811-0.893-1.053-1.508c-0.243-0.615-0.364-1.382-0.364-2.301c0-0.988,0.165-1.885,0.494-2.691
		c0.329-0.806,0.797-1.499,1.404-2.08c0.606-0.581,1.326-1.027,2.158-1.339c0.832-0.312,1.733-0.468,2.704-0.468
		c1.005,0,2.062,0.147,3.172,0.442c1.109,0.295,2.097,0.685,2.964,1.17L165.214,6.577z"/>
</g>
</svg>
